<mxfile host="app.diagrams.net" modified="2023-09-08T18:14:16.456Z" agent="Mozilla/5.0 (Windows NT 10.0; Win64; x64) AppleWebKit/537.36 (KHTML, like Gecko) Chrome/116.0.0.0 Safari/537.36 Edg/116.0.1938.54" etag="9kkicH6RFvv6_1yKrpwW" version="21.5.0" type="github">
  <diagram name="Страница 1" id="4-qlhPkDezF14HBV0zLg">
    <mxGraphModel dx="1823" dy="573" grid="1" gridSize="10" guides="1" tooltips="1" connect="1" arrows="1" fold="1" page="1" pageScale="1" pageWidth="827" pageHeight="1169" math="0" shadow="0">
      <root>
        <mxCell id="0" />
        <mxCell id="1" parent="0" />
        <mxCell id="LBpoZwMu6iU4ZQxWgZkc-10" value="" style="edgeStyle=orthogonalEdgeStyle;rounded=0;orthogonalLoop=1;jettySize=auto;html=1;" edge="1" parent="1" source="Pk7qV8BLqktDXEossWv6-1" target="Pk7qV8BLqktDXEossWv6-2">
          <mxGeometry relative="1" as="geometry" />
        </mxCell>
        <mxCell id="Pk7qV8BLqktDXEossWv6-1" value="Аутифицированныйr" style="shape=umlActor;verticalLabelPosition=bottom;verticalAlign=top;html=1;outlineConnect=0;" parent="1" vertex="1">
          <mxGeometry x="400" y="270" width="30" height="60" as="geometry" />
        </mxCell>
        <mxCell id="Pk7qV8BLqktDXEossWv6-2" value="Пользователь" style="shape=umlActor;verticalLabelPosition=bottom;verticalAlign=top;html=1;outlineConnect=0;" parent="1" vertex="1">
          <mxGeometry x="400" y="120" width="30" height="60" as="geometry" />
        </mxCell>
        <mxCell id="LBpoZwMu6iU4ZQxWgZkc-9" value="" style="edgeStyle=orthogonalEdgeStyle;rounded=0;orthogonalLoop=1;jettySize=auto;html=1;" edge="1" parent="1" source="Pk7qV8BLqktDXEossWv6-3" target="Pk7qV8BLqktDXEossWv6-1">
          <mxGeometry relative="1" as="geometry" />
        </mxCell>
        <mxCell id="Pk7qV8BLqktDXEossWv6-3" value="Админr" style="shape=umlActor;verticalLabelPosition=bottom;verticalAlign=top;html=1;outlineConnect=0;" parent="1" vertex="1">
          <mxGeometry x="400" y="420" width="30" height="60" as="geometry" />
        </mxCell>
        <mxCell id="Pk7qV8BLqktDXEossWv6-4" value="Вход" style="ellipse;whiteSpace=wrap;html=1;" parent="1" vertex="1">
          <mxGeometry x="180" y="50" width="110" height="60" as="geometry" />
        </mxCell>
        <mxCell id="Pk7qV8BLqktDXEossWv6-5" value="Заполнение&lt;br&gt;профиля" style="ellipse;whiteSpace=wrap;html=1;" parent="1" vertex="1">
          <mxGeometry x="170" y="240" width="120" height="80" as="geometry" />
        </mxCell>
        <mxCell id="Pk7qV8BLqktDXEossWv6-6" value="Регистрация" style="ellipse;whiteSpace=wrap;html=1;" parent="1" vertex="1">
          <mxGeometry x="170" y="120" width="120" height="70" as="geometry" />
        </mxCell>
        <mxCell id="Pk7qV8BLqktDXEossWv6-7" value="Изменения данных&amp;nbsp;&lt;br&gt;профиля" style="ellipse;whiteSpace=wrap;html=1;" parent="1" vertex="1">
          <mxGeometry x="-30" y="240" width="120" height="80" as="geometry" />
        </mxCell>
        <mxCell id="Pk7qV8BLqktDXEossWv6-8" value="Редактирование информации о конференции" style="ellipse;whiteSpace=wrap;html=1;" parent="1" vertex="1">
          <mxGeometry x="180" y="410" width="120" height="80" as="geometry" />
        </mxCell>
        <mxCell id="Pk7qV8BLqktDXEossWv6-10" value="Просмотр итогов&lt;br&gt;конференций" style="ellipse;whiteSpace=wrap;html=1;" parent="1" vertex="1">
          <mxGeometry x="480" y="30" width="120" height="80" as="geometry" />
        </mxCell>
        <mxCell id="Pk7qV8BLqktDXEossWv6-11" value="Подача заявлений на участие в конференции" style="ellipse;whiteSpace=wrap;html=1;" parent="1" vertex="1">
          <mxGeometry x="550" y="130" width="120" height="80" as="geometry" />
        </mxCell>
        <mxCell id="Pk7qV8BLqktDXEossWv6-12" value="Просмотр информации о конференции" style="ellipse;whiteSpace=wrap;html=1;" parent="1" vertex="1">
          <mxGeometry x="530" y="250" width="120" height="80" as="geometry" />
        </mxCell>
        <mxCell id="Pk7qV8BLqktDXEossWv6-13" value="Редактировать данные участников конференции" style="ellipse;whiteSpace=wrap;html=1;" parent="1" vertex="1">
          <mxGeometry x="530" y="400" width="120" height="80" as="geometry" />
        </mxCell>
        <mxCell id="Pk7qV8BLqktDXEossWv6-14" value="Изменение информации в случае ошибки" style="ellipse;whiteSpace=wrap;html=1;" parent="1" vertex="1">
          <mxGeometry x="770" y="130" width="120" height="80" as="geometry" />
        </mxCell>
        <mxCell id="LBpoZwMu6iU4ZQxWgZkc-1" value="" style="endArrow=none;html=1;rounded=0;exitX=1;exitY=0.5;exitDx=0;exitDy=0;" edge="1" parent="1" source="Pk7qV8BLqktDXEossWv6-4">
          <mxGeometry width="50" height="50" relative="1" as="geometry">
            <mxPoint x="390" y="320" as="sourcePoint" />
            <mxPoint x="400" y="120" as="targetPoint" />
            <Array as="points">
              <mxPoint x="340" y="81" />
              <mxPoint x="400" y="81" />
            </Array>
          </mxGeometry>
        </mxCell>
        <mxCell id="LBpoZwMu6iU4ZQxWgZkc-2" value="" style="endArrow=none;html=1;rounded=0;" edge="1" parent="1" source="Pk7qV8BLqktDXEossWv6-6">
          <mxGeometry width="50" height="50" relative="1" as="geometry">
            <mxPoint x="300" y="160" as="sourcePoint" />
            <mxPoint x="380" y="160" as="targetPoint" />
            <Array as="points">
              <mxPoint x="340" y="160" />
            </Array>
          </mxGeometry>
        </mxCell>
        <mxCell id="LBpoZwMu6iU4ZQxWgZkc-4" value="" style="endArrow=none;html=1;rounded=0;exitX=1;exitY=0.5;exitDx=0;exitDy=0;" edge="1" parent="1" source="Pk7qV8BLqktDXEossWv6-5">
          <mxGeometry width="50" height="50" relative="1" as="geometry">
            <mxPoint x="390" y="320" as="sourcePoint" />
            <mxPoint x="380" y="280" as="targetPoint" />
          </mxGeometry>
        </mxCell>
        <mxCell id="LBpoZwMu6iU4ZQxWgZkc-5" value="" style="endArrow=none;html=1;rounded=0;exitX=1;exitY=0.408;exitDx=0;exitDy=0;exitPerimeter=0;" edge="1" parent="1" source="Pk7qV8BLqktDXEossWv6-8">
          <mxGeometry width="50" height="50" relative="1" as="geometry">
            <mxPoint x="390" y="320" as="sourcePoint" />
            <mxPoint x="380" y="440" as="targetPoint" />
          </mxGeometry>
        </mxCell>
        <mxCell id="LBpoZwMu6iU4ZQxWgZkc-11" value="" style="endArrow=none;html=1;rounded=0;entryX=0;entryY=0;entryDx=0;entryDy=0;" edge="1" parent="1" target="Pk7qV8BLqktDXEossWv6-10">
          <mxGeometry width="50" height="50" relative="1" as="geometry">
            <mxPoint x="440" y="120" as="sourcePoint" />
            <mxPoint x="440" y="270" as="targetPoint" />
            <Array as="points">
              <mxPoint x="440" y="40" />
            </Array>
          </mxGeometry>
        </mxCell>
        <mxCell id="LBpoZwMu6iU4ZQxWgZkc-12" value="" style="endArrow=none;html=1;rounded=0;" edge="1" parent="1">
          <mxGeometry width="50" height="50" relative="1" as="geometry">
            <mxPoint x="450" y="280" as="sourcePoint" />
            <mxPoint x="527" y="280" as="targetPoint" />
          </mxGeometry>
        </mxCell>
        <mxCell id="LBpoZwMu6iU4ZQxWgZkc-13" value="" style="endArrow=none;html=1;rounded=0;entryX=0;entryY=0.5;entryDx=0;entryDy=0;" edge="1" parent="1" target="Pk7qV8BLqktDXEossWv6-13">
          <mxGeometry width="50" height="50" relative="1" as="geometry">
            <mxPoint x="450" y="440" as="sourcePoint" />
            <mxPoint x="440" y="270" as="targetPoint" />
          </mxGeometry>
        </mxCell>
        <mxCell id="LBpoZwMu6iU4ZQxWgZkc-14" value="" style="endArrow=block;dashed=1;endFill=0;endSize=12;html=1;rounded=0;" edge="1" parent="1" target="Pk7qV8BLqktDXEossWv6-11">
          <mxGeometry width="160" relative="1" as="geometry">
            <mxPoint x="440" y="270" as="sourcePoint" />
            <mxPoint x="490" y="300" as="targetPoint" />
          </mxGeometry>
        </mxCell>
        <mxCell id="LBpoZwMu6iU4ZQxWgZkc-15" value="&amp;lt;&amp;lt;Insert into&amp;gt;&amp;gt;" style="text;html=1;strokeColor=none;fillColor=none;align=center;verticalAlign=middle;whiteSpace=wrap;rounded=0;" vertex="1" parent="1">
          <mxGeometry x="510" y="220" width="60" height="30" as="geometry" />
        </mxCell>
        <mxCell id="LBpoZwMu6iU4ZQxWgZkc-16" value="" style="endArrow=block;dashed=1;endFill=0;endSize=12;html=1;rounded=0;exitX=0;exitY=0.5;exitDx=0;exitDy=0;entryX=1;entryY=0.5;entryDx=0;entryDy=0;" edge="1" parent="1" source="Pk7qV8BLqktDXEossWv6-5" target="Pk7qV8BLqktDXEossWv6-7">
          <mxGeometry width="160" relative="1" as="geometry">
            <mxPoint x="330" y="300" as="sourcePoint" />
            <mxPoint x="490" y="300" as="targetPoint" />
          </mxGeometry>
        </mxCell>
        <mxCell id="LBpoZwMu6iU4ZQxWgZkc-17" value="&amp;lt;&amp;lt;Update&amp;gt;&amp;gt;" style="text;html=1;strokeColor=none;fillColor=none;align=center;verticalAlign=middle;whiteSpace=wrap;rounded=0;" vertex="1" parent="1">
          <mxGeometry x="110" y="250" width="60" height="30" as="geometry" />
        </mxCell>
        <mxCell id="LBpoZwMu6iU4ZQxWgZkc-18" value="&amp;lt;&amp;lt;Update&amp;gt;&amp;gt;" style="text;html=1;strokeColor=none;fillColor=none;align=center;verticalAlign=middle;whiteSpace=wrap;rounded=0;" vertex="1" parent="1">
          <mxGeometry x="680" y="135" width="60" height="30" as="geometry" />
        </mxCell>
        <mxCell id="LBpoZwMu6iU4ZQxWgZkc-19" value="" style="endArrow=block;dashed=1;endFill=0;endSize=12;html=1;rounded=0;exitX=1;exitY=0.5;exitDx=0;exitDy=0;" edge="1" parent="1" source="Pk7qV8BLqktDXEossWv6-11" target="Pk7qV8BLqktDXEossWv6-14">
          <mxGeometry width="160" relative="1" as="geometry">
            <mxPoint x="330" y="300" as="sourcePoint" />
            <mxPoint x="490" y="300" as="targetPoint" />
          </mxGeometry>
        </mxCell>
      </root>
    </mxGraphModel>
  </diagram>
</mxfile>
